:SAMPLES-PER-SECOND 30
:FULLY-SPECIFIED
:DEGREES
174
root  -25.1193 37.4101 0.461428 -152.635 82.1357 -143.271
RightUpLeg  -17.677 -7.08916 6.96681
RightLeg  30.8479 -4.13634 -2.91738
RightFoot  -2.91154 0.47678 -6.69467
RightToes  5.82063e-011 0 -3.6325e-017
Spine  13.6423 -3.54179 13.0297
Spine1  14.4882 -1.7006 2.07632
HEad  -7.15589 -3.94231 -2.63026
LeftShoulder1  0.051866 3.35457 -28.5704
LeftArm  -10.6012 3.78502 -38.0686
LeftForeArm  71.3732 -79.3786 -74.44
LeftHand  0.00270944 2.5377 -0.688349
RightShoulder  -0.172662 -3.99432 27.041
RightArm  -12.4647 -13.6035 40.8345
RightForeArm  100.86 76.6656 123.936
RightHand  -0.063943 -3.83266 -3.47431
LeftUpLeg  7.378 -1.1443 10.1603
LeftLeg  57.5588 -3.78461 -5.91392
LeftFoot  10.437 1.87987 -9.83892
LeftToes  1.81573e-012 2.54609e-010 -3.45981e-011
175
root  -23.646 37.6153 0.529264 -156.466 81.0676 -147.008
RightUpLeg  -15.1978 -7.73514 7.0161
RightLeg  31.4485 -4.70245 -3.35577
RightFoot  -5.72338 0.269133 -6.26911
RightToes  5.82063e-011 0 -3.6325e-017
Spine  13.135 -3.67455 14.3425
Spine1  15.5941 -1.41592 1.59097
HEad  -8.12875 -5.30584 -2.3877
LeftShoulder1  0.0914825 3.2382 -28.2546
LeftArm  -9.76312 1.55774 -38.229
LeftForeArm  67.403 -79.1536 -70.8259
LeftHand  -0.00755461 2.63792 -0.338839
RightShoulder  -0.0609757 -3.66586 26.1368
RightArm  -13.0457 -12.9326 40.9909
RightForeArm  100.413 76.6645 123.827
RightHand  -0.0373053 -4.97244 -3.58502
LeftUpLeg  0.665689 -3.18587 9.61656
LeftLeg  65.535 -2.2061 -4.71038
LeftFoot  9.69014 1.28212 -7.14619
LeftToes  1.81573e-012 2.54609e-010 -3.45981e-011
176
root  -22.1132 37.9889 0.627985 -161.548 81.4755 -152.425
RightUpLeg  -12.1312 -8.22946 6.18564
RightLeg  30.271 -4.34805 -2.99318
RightFoot  -7.90384 0.125571 -5.95547
RightToes  5.82063e-011 0 -3.6325e-017
Spine  12.6129 -3.1608 14.1797
Spine1  15.4601 -0.743335 0.776816
HEad  -8.45106 -5.78611 -2.22828
LeftShoulder1  0.0709168 3.29578 -27.9653
LeftArm  -8.91814 0.113591 -38.0547
LeftForeArm  63.322 -78.8748 -67.3856
LeftHand  -0.0124083 2.92658 -0.4375
RightShoulder  -0.0670248 -3.68439 26.0327
RightArm  -12.8119 -11.64 40.699
RightForeArm  96.7254 77.1375 120.338
RightHand  -0.0384208 -4.85689 -3.26158
LeftUpLeg  -5.58764 -3.57592 8.29411
LeftLeg  69.2929 -1.80288 -4.49901
LeftFoot  6.38662 0.769955 -5.23544
LeftToes  1.81573e-012 2.54609e-010 -3.45981e-011
177
root  -20.5508 38.3855 0.682965 -167.307 82.2867 -158.76
RightUpLeg  -8.92578 -8.26506 5.08645
RightLeg  28.3326 -3.99073 -2.58367
RightFoot  -9.60915 0.0196786 -5.57987
RightToes  5.82063e-011 0 -3.6325e-017
Spine  11.8886 -2.62756 14.0649
Spine1  14.8998 0.0427367 -0.519571
HEad  -7.88024 -5.85105 -2.51633
LeftShoulder1  0.106608 3.1887 -27.6508
LeftArm  -8.61408 -0.346643 -37.84
LeftForeArm  60.4646 -78.6475 -64.944
LeftHand  -0.014225 3.19589 -0.400645
RightShoulder  -0.0752302 -3.70862 26.1564
RightArm  -12.0596 -10.416 40.4199
RightForeArm  91.5407 77.5428 116.392
RightHand  -0.0413748 -4.93656 -4.3372
LeftUpLeg  -11.1461 -3.64727 6.4548
LeftLeg  69.1462 -1.51586 -3.62901
LeftFoot  4.60452 0.709287 -5.2285
LeftToes  1.81573e-012 2.54609e-010 -3.45981e-011
178
root  -18.9445 38.7224 0.727527 -172.468 83.5025 -164.52
RightUpLeg  -5.51736 -8.45091 3.93353
RightLeg  26.0009 -2.84361 -1.67168
RightFoot  -11.301 -0.0746128 -5.28191
RightToes  5.82063e-011 0 -3.6325e-017
Spine  10.8373 -1.82219 13.9977
Spine1  14.6473 1.00696 -1.79626
HEad  -7.67865 -5.77761 -2.97388
LeftShoulder1  0.101684 3.20409 -27.7801
LeftArm  -8.39203 -0.498068 -37.3985
LeftForeArm  60.0792 -78.6095 -64.5115
LeftHand  -0.00631148 2.6622 -0.671062
RightShoulder  -0.00215817 -3.48345 25.5142
RightArm  -11.8707 -10.1643 41.0282
RightForeArm  89.004 77.496 115.929
RightHand  -0.0513501 -4.79841 -6.03267
LeftUpLeg  -15.6521 -3.04573 4.78974
LeftLeg  65.7565 -1.79437 -3.68666
LeftFoot  2.21075 0.429088 -3.74966
LeftToes  1.81573e-012 2.54609e-010 -3.45981e-011
179
root  -17.3342 38.9917 0.786462 -178.422 84.7274 -171.106
RightUpLeg  -2.05957 -8.1403 2.90753
RightLeg  23.4073 -2.16187 -0.952958
RightFoot  -12.5446 -0.138804 -5.14011
RightToes  5.82063e-011 0 -3.6325e-017
Spine  9.96646 -0.967489 13.6779
Spine1  13.9557 1.86977 -2.79997
HEad  -7.4497 -5.03071 -3.25522
LeftShoulder1  0.069197 3.30025 -27.8647
LeftArm  -8.5425 -0.469165 -37.3972
LeftForeArm  59.8095 -78.5858 -64.2804
LeftHand  -0.00118874 2.7481 -0.607172
RightShoulder  0.0377556 -3.35644 25.0005
RightArm  -12 -10.275 41.3758
RightForeArm  90.4643 77.5379 116.084
RightHand  -0.067128 -4.21532 -4.93388
LeftUpLeg  -19.091 -2.42924 3.33602
LeftLeg  59.4813 -2.26033 -3.60477
LeftFoot  0.0734131 0.365327 -3.65354
LeftToes  1.81573e-012 2.54609e-010 -3.45981e-011
180
root  -15.6973 39.1577 0.831009 173.845 85.518 -179.093
RightUpLeg  1.9037 -8.56091 1.74336
RightLeg  20.6305 -1.07447 -0.115024
RightFoot  -13.8583 -0.208386 -5.20469
RightToes  5.82063e-011 0 -3.6325e-017
Spine  9.16019 -0.384885 13.6826
Spine1  13.6122 2.65543 -4.47695
HEad  -7.52214 -4.96522 -3.09514
LeftShoulder1  0.092394 3.22892 -27.4177
LeftArm  -8.83623 -0.151925 -37.6033
LeftForeArm  61.2658 -78.7131 -65.6154
LeftHand  0.00569199 2.66862 -0.885447
RightShoulder  0.0187522 -3.4169 24.9737
RightArm  -12.2176 -10.483 41.4438
RightForeArm  93.5759 77.4874 117.346
RightHand  -0.0876181 -3.25765 -3.88243
LeftUpLeg  -20.946 -1.75576 1.98184
LeftLeg  50.6024 -2.78094 -3.20069
LeftFoot  -1.03016 0.317522 -3.47487
LeftToes  1.81573e-012 2.54609e-010 -3.45981e-011
181
root  -14.0661 39.207 0.881109 169.306 86.268 176.315
RightUpLeg  6.01183 -8.62107 1.10188
RightLeg  17.8893 -0.243735 0.395153
RightFoot  -15.0531 -0.275077 -5.35638
RightToes  5.82063e-011 0 -3.6325e-017
Spine  8.53713 -0.0348025 13.7817
Spine1  13.339 3.16008 -5.98224
HEad  -7.93035 -4.49122 -3.01238
LeftShoulder1  0.0713971 3.29037 -27.302
LeftArm  -9.16974 0.095113 -37.3652
LeftForeArm  62.0859 -78.8035 -67.0442
LeftHand  -0.00640763 2.81337 -0.416873
RightShoulder  0.00599047 -3.45782 25.0306
RightArm  -11.905 -10.1982 41.7682
RightForeArm  92.5677 77.48 117.096
RightHand  -0.0952356 -3.38906 -4.61855
LeftUpLeg  -21.3201 -0.674666 1.20736
LeftLeg  39.3533 -3.37582 -2.59125
LeftFoot  -2.1642 0.356981 -4.28001
LeftToes  1.81573e-012 2.54609e-010 -3.45981e-011
182
root  -12.4586 39.1702 0.950999 167.871 87.0105 174.493
RightUpLeg  9.75241 -8.18114 1.08752
RightLeg  14.9077 0.0549472 0.404893
RightFoot  -16.0913 -0.320212 -5.0966
RightToes  5.82063e-011 0 -3.6325e-017
Spine  7.4165 0.488246 13.5364
Spine1  13.6275 3.62808 -6.89007
HEad  -8.3565 -4.28503 -2.55806
LeftShoulder1  0.107138 3.18239 -27.1529
LeftArm  -9.7435 0.291962 -37.4599
LeftForeArm  63.8115 -78.9326 -68.6143
LeftHand  -0.0066662 2.64945 -0.345394
RightShoulder  0.0248378 -3.39743 24.9726
RightArm  -11.8451 -9.89701 41.8875
RightForeArm  94.1006 77.447 117.757
RightHand  -0.0788687 -3.46219 -3.77656
LeftUpLeg  -20.8643 1.01459 0.64544
LeftLeg  25.9326 -4.30827 -1.9221
LeftFoot  -1.64165 0.410347 -4.69786
LeftToes  1.81573e-012 2.54609e-010 -3.45981e-011
183
root  -10.8178 39.0534 1.02562 166.133 87.2199 172.799
RightUpLeg  14.235 -7.9752 0.941573
RightLeg  11.6004 0.0881247 0.34446
RightFoot  -17.0464 -0.348583 -4.67504
RightToes  5.82063e-011 0 -3.6325e-017
Spine  6.53444 0.746985 12.5176
Spine1  14.1079 3.67617 -7.02545
HEad  -8.43024 -4.1713 -2.29631
LeftShoulder1  0.0724662 3.28821 -27.4432
LeftArm  -9.97782 0.572502 -37.2433
LeftForeArm  65.6094 -79.0602 -70.4153
LeftHand  -0.00509185 2.53729 -0.285152
RightShoulder  0.0393432 -3.35074 24.8885
RightArm  -11.9645 -10.0282 42.1936
RightForeArm  95.1802 77.3373 118.748
RightHand  -0.0832658 -3.45049 -4.01454
LeftUpLeg  -19.2615 1.91376 0.0282506
LeftLeg  12.3697 -4.86356 -1.06025
LeftFoot  -0.796722 0.58555 -6.29811
LeftToes  1.81573e-012 2.54609e-010 -3.45981e-011
184
root  -9.14506 38.802 1.05587 160.563 87.6268 167.331
RightUpLeg  18.1798 -8.30852 0.101761
RightLeg  9.76149 1.15864 0.697578
RightFoot  -18.5374 -0.380612 -4.07053
RightToes  5.82063e-011 0 -3.6325e-017
Spine  5.56312 1.07505 11.4342
Spine1  14.8283 3.91275 -7.17092
HEad  -8.566 -3.92409 -1.8364
LeftShoulder1  0.0470025 3.36444 -27.5148
LeftArm  -9.99442 0.588733 -37.1062
LeftForeArm  66.351 -79.1067 -71.0973
LeftHand  -0.00270497 2.53178 -0.126883
RightShoulder  0.0285679 -3.38555 24.9655
RightArm  -11.9366 -10.3614 42.3605
RightForeArm  95.6767 77.2316 119.521
RightHand  -0.086468 -3.41382 -4.14465
LeftUpLeg  -17.9197 1.75906 -0.383288
LeftLeg  2.28083 -3.852 -0.55932
LeftFoot  -0.792028 0.627768 -6.76185
LeftToes  1.81573e-012 2.54609e-010 -3.45981e-011
185
root  -7.37992 38.3915 1.03148 158.334 87.6617 165.48
RightUpLeg  21.8641 -8.66553 -0.689411
RightLeg  9.55014 2.06074 0.814426
RightFoot  -20.5526 -0.358794 -2.74592
RightToes  5.82063e-011 0 -3.6325e-017
Spine  4.86432 1.07009 10.6027
Spine1  15.1239 3.95161 -7.5634
HEad  -7.99493 -3.75958 -1.05477
LeftShoulder1  0.0409304 3.38065 -27.0576
LeftArm  -9.87148 0.883877 -36.8381
LeftForeArm  68.8505 -79.2561 -73.7654
LeftHand  -0.00624017 2.64356 -0.371082
RightShoulder  -0.0188804 -3.53578 25.4234
RightArm  -11.7494 -10.8529 42.3279
RightForeArm  96.7555 77.2057 119.971
RightHand  -0.0543334 -4.2319 -3.55111
LeftUpLeg  -17.518 1.40167 -0.979636
LeftLeg  -0.635845 -2.74394 -0.528685
LeftFoot  -2.19297 0.581478 -6.98164
LeftToes  1.81573e-012 2.54609e-010 -3.45981e-011
186
root  -5.52212 37.8947 0.976551 158.513 87.6618 165.871
RightUpLeg  24.667 -9.15367 -1.58814
RightLeg  11.138 3.30778 1.08857
RightFoot  -22.4483 -0.234209 -0.833009
RightToes  5.82063e-011 0 -3.6325e-017
Spine  3.78061 1.18611 9.91823
Spine1  15.7019 4.05473 -7.72839
HEad  -7.51184 -3.80628 -0.0742547
LeftShoulder1  0.0522608 3.34675 -27.0472
LeftArm  -9.63603 0.997359 -36.4575
LeftForeArm  70.7643 -79.3525 -75.8309
LeftHand  -0.0155825 2.86076 -0.00100203
RightShoulder  -0.109346 -3.81769 25.8865
RightArm  -11.5675 -11.7733 41.9359
RightForeArm  97.4405 77.1058 120.727
RightHand  -0.0660585 -3.56571 -3.04075
LeftUpLeg  -18.4761 1.16531 -1.72044
LeftLeg  3.74977 -1.70806 -0.618572
LeftFoot  -1.4312 0.345435 -4.25615
LeftToes  1.81573e-012 2.54609e-010 -3.45981e-011
187
root  -3.63363 37.4896 0.862968 138.068 87.2469 146.413
RightUpLeg  27.9492 -9.81251 -4.29564
RightLeg  13.7543 5.52173 1.42041
RightFoot  -23.338 0.0713449 2.10456
RightToes  5.82063e-011 0 -3.6325e-017
Spine  3.95003 1.29212 8.04975
Spine1  16.0574 4.20558 -8.00472
HEad  -7.55573 -4.05462 1.14757
LeftShoulder1  -0.0111192 3.53615 -27.2886
LeftArm  -9.01635 1.0665 -36.118
LeftForeArm  72.4701 -79.425 -77.544
LeftHand  -0.0100773 2.67846 -0.201972
RightShoulder  -0.116885 -3.83677 26.1867
RightArm  -11.3241 -13.701 41.4511
RightForeArm  96.4632 76.8919 121.655
RightHand  -0.0857713 -3.85995 -5.21679
LeftUpLeg  -18.9331 -0.126845 -3.66537
LeftLeg  10.6428 -0.806373 -0.137221
LeftFoot  5.27586 -0.219147 1.27861
LeftToes  1.81573e-012 2.54609e-010 -3.45981e-011
188
root  -1.73881 37.0523 0.702956 128.743 84.2889 138.56
RightUpLeg  30.1104 -10.8293 -8.65137
RightLeg  20.2317 7.12782 2.66796
RightFoot  -23.3013 0.604818 7.35651
RightToes  5.82063e-011 0 -3.6325e-017
Spine  5.38301 0.572464 3.76015
Spine1  15.3551 2.93391 -6.86811
HEad  -7.43713 -4.1255 2.01224
LeftShoulder1  -0.143133 3.924 -27.9186
LeftArm  -8.6645 1.49017 -35.6485
LeftForeArm  75.0872 -79.527 -79.664
LeftHand  -0.00136336 2.60583 -0.558466
RightShoulder  -0.176922 -4.0118 26.858
RightArm  -10.4994 -15.0312 40.6849
RightForeArm  95.8219 76.8934 121.475
RightHand  -0.087163 -3.84131 -5.41894
LeftUpLeg  -18.6716 -4.05762 -6.62777
LeftLeg  17.3555 1.18882 0.829636
LeftFoot  10.7877 -0.719896 3.46126
LeftToes  1.81573e-012 2.54609e-010 -3.45981e-011
